<svg width="605" height="867" viewBox="0 0 605 867" fill="none" xmlns="http://www.w3.org/2000/svg">
<g clip-path="url(#clip0_8_689)">
<path d="M123.556 89.9342C91.6343 88.1608 78.6293 115.944 78.6293 115.944C78.6293 115.944 61.4863 110.624 49.0724 115.944C36.6585 121.264 29.5649 133.678 29.5649 133.678C29.5649 133.678 -0.582556 139.59 0.00858109 165.009C0.599718 190.428 11.8313 198.703 21.289 198.703H172.029C172.029 198.703 206.906 199.886 205.133 157.915C203.359 115.944 160.206 118.9 160.206 118.9C160.206 118.9 155.477 91.7076 123.556 89.9342Z" fill="url(#paint0_linear_8_689)"/>
<path d="M341.094 0.0814235C309.173 -1.69199 296.168 26.0915 296.168 26.0915C296.168 26.0915 279.025 20.7712 266.611 26.0915C254.197 31.4117 247.103 43.8256 247.103 43.8256C247.103 43.8256 216.956 49.737 217.547 75.1559C218.138 100.575 229.37 108.851 238.828 108.851H389.568C389.568 108.851 424.445 110.033 422.671 68.0622C420.898 26.0915 377.745 29.0472 377.745 29.0472C377.745 29.0472 373.016 1.85483 341.094 0.0814235Z" fill="url(#paint1_linear_8_689)"/>
<path d="M490.901 393.275V432.939H437.397V865.504H549.057V449.404V432.939V393.275H490.901Z" fill="url(#paint2_linear_8_689)"/>
<path d="M196.241 659.698V591.596H128.004V659.698H102.416V866.252H221.054V659.698H196.241Z" fill="url(#paint3_linear_8_689)"/>
<path opacity="0.1" d="M130.33 770.459H115.597V867H130.33V770.459Z" fill="url(#paint4_linear_8_689)"/>
<path d="M397.85 371.572V394.771H261.375V371.572H221.054V867H437.397V371.572H397.85Z" fill="url(#paint5_linear_8_689)"/>
<path opacity="0.1" d="M428.091 371.572H397.85V394.772H428.091V371.572Z" fill="url(#paint6_linear_8_689)"/>
<path opacity="0.1" d="M251.295 371.572H221.054V867H251.295V371.572Z" fill="url(#paint7_linear_8_689)"/>
<path d="M66.7461 513.016V494.306H46.5853V513.016H10.1396V867H102.415V513.016H66.7461Z" fill="url(#paint8_linear_8_689)"/>
<path opacity="0.1" d="M57.4406 494.306H46.5847V513.016H57.4406V494.306Z" fill="url(#paint9_linear_8_689)"/>
<path opacity="0.1" d="M20.9958 513.016H10.1399V867H20.9958V513.016Z" fill="url(#paint10_linear_8_689)"/>
<path opacity="0.1" d="M428.091 562.409H397.85V867H428.091V562.409Z" fill="url(#paint11_linear_8_689)"/>
<path opacity="0.1" d="M102.415 513.016H74.5V578.125H102.415V513.016Z" fill="url(#paint12_linear_8_689)"/>
<path opacity="0.1" d="M199.343 675.414H124.902V705.35H199.343V675.414Z" fill="url(#paint13_linear_8_689)"/>
<path opacity="0.1" d="M525.019 467.365H450.578V497.3H525.019V467.365Z" fill="url(#paint14_linear_8_689)"/>
<path opacity="0.1" d="M525.019 530.977H450.578V560.912H525.019V530.977Z" fill="url(#paint15_linear_8_689)"/>
<path opacity="0.1" d="M525.019 594.589H450.578V624.524H525.019V594.589Z" fill="url(#paint16_linear_8_689)"/>
<path opacity="0.1" d="M525.019 658.202H450.578V688.137H525.019V658.202Z" fill="url(#paint17_linear_8_689)"/>
<path opacity="0.1" d="M525.019 721.814H450.578V751.749H525.019V721.814Z" fill="url(#paint18_linear_8_689)"/>
<path opacity="0.1" d="M525.019 785.426H450.578V815.361H525.019V785.426Z" fill="url(#paint19_linear_8_689)"/>
<path d="M574.646 602.821V521.248H520.366V602.821H500.98V867H593.256V602.821H574.646Z" fill="url(#paint20_linear_8_689)"/>
<path opacity="0.1" d="M537.425 521.248H520.366V602.822H537.425V521.248Z" fill="url(#paint21_linear_8_689)"/>
<path opacity="0.1" d="M518.04 602.822H500.981V867H518.04V602.822Z" fill="url(#paint22_linear_8_689)"/>
<path opacity="0.1" d="M593.256 735.285H547.506V761.478H593.256V735.285Z" fill="url(#paint23_linear_8_689)"/>
</g>
<defs>
<linearGradient id="paint0_linear_8_689" x1="102.599" y1="89.8528" x2="102.599" y2="198.707" gradientUnits="userSpaceOnUse">
<stop stop-color="#4779C4"/>
<stop offset="1" stop-color="#4C8CEC"/>
</linearGradient>
<linearGradient id="paint1_linear_8_689" x1="320.138" y1="0" x2="320.138" y2="108.854" gradientUnits="userSpaceOnUse">
<stop stop-color="#4779C4"/>
<stop offset="1" stop-color="#4C8CEC"/>
</linearGradient>
<linearGradient id="paint2_linear_8_689" x1="493.227" y1="393.275" x2="493.227" y2="865.504" gradientUnits="userSpaceOnUse">
<stop stop-color="#4779C4"/>
<stop offset="1" stop-color="#4C8CEC"/>
</linearGradient>
<linearGradient id="paint3_linear_8_689" x1="161.735" y1="591.596" x2="161.735" y2="866.252" gradientUnits="userSpaceOnUse">
<stop stop-color="#4779C4"/>
<stop offset="1" stop-color="#4C8CEC"/>
</linearGradient>
<linearGradient id="paint4_linear_8_689" x1="122.964" y1="770.459" x2="122.964" y2="867" gradientUnits="userSpaceOnUse">
<stop stop-color="#4779C4"/>
<stop offset="1" stop-color="#4C8CEC"/>
</linearGradient>
<linearGradient id="paint5_linear_8_689" x1="329.225" y1="371.572" x2="329.225" y2="867" gradientUnits="userSpaceOnUse">
<stop stop-color="#4779C4"/>
<stop offset="1" stop-color="#4C8CEC"/>
</linearGradient>
<linearGradient id="paint6_linear_8_689" x1="412.97" y1="371.572" x2="412.97" y2="394.772" gradientUnits="userSpaceOnUse">
<stop stop-color="#4779C4"/>
<stop offset="1" stop-color="#4C8CEC"/>
</linearGradient>
<linearGradient id="paint7_linear_8_689" x1="236.175" y1="371.572" x2="236.175" y2="867" gradientUnits="userSpaceOnUse">
<stop stop-color="#4779C4"/>
<stop offset="1" stop-color="#4C8CEC"/>
</linearGradient>
<linearGradient id="paint8_linear_8_689" x1="56.2776" y1="494.306" x2="56.2776" y2="867" gradientUnits="userSpaceOnUse">
<stop stop-color="#4779C4"/>
<stop offset="1" stop-color="#4C8CEC"/>
</linearGradient>
<linearGradient id="paint9_linear_8_689" x1="52.0127" y1="494.306" x2="52.0127" y2="513.016" gradientUnits="userSpaceOnUse">
<stop stop-color="#4779C4"/>
<stop offset="1" stop-color="#4C8CEC"/>
</linearGradient>
<linearGradient id="paint10_linear_8_689" x1="15.5678" y1="513.016" x2="15.5678" y2="867" gradientUnits="userSpaceOnUse">
<stop stop-color="#4779C4"/>
<stop offset="1" stop-color="#4C8CEC"/>
</linearGradient>
<linearGradient id="paint11_linear_8_689" x1="412.97" y1="562.409" x2="412.97" y2="867" gradientUnits="userSpaceOnUse">
<stop stop-color="#4779C4"/>
<stop offset="1" stop-color="#4C8CEC"/>
</linearGradient>
<linearGradient id="paint12_linear_8_689" x1="88.4575" y1="513.016" x2="88.4575" y2="578.125" gradientUnits="userSpaceOnUse">
<stop stop-color="#4779C4"/>
<stop offset="1" stop-color="#4C8CEC"/>
</linearGradient>
<linearGradient id="paint13_linear_8_689" x1="162.122" y1="675.414" x2="162.122" y2="705.35" gradientUnits="userSpaceOnUse">
<stop stop-color="#4779C4"/>
<stop offset="1" stop-color="#4C8CEC"/>
</linearGradient>
<linearGradient id="paint14_linear_8_689" x1="487.799" y1="467.365" x2="487.799" y2="497.3" gradientUnits="userSpaceOnUse">
<stop stop-color="#4779C4"/>
<stop offset="1" stop-color="#4C8CEC"/>
</linearGradient>
<linearGradient id="paint15_linear_8_689" x1="487.799" y1="530.977" x2="487.799" y2="560.912" gradientUnits="userSpaceOnUse">
<stop stop-color="#4779C4"/>
<stop offset="1" stop-color="#4C8CEC"/>
</linearGradient>
<linearGradient id="paint16_linear_8_689" x1="487.799" y1="594.589" x2="487.799" y2="624.524" gradientUnits="userSpaceOnUse">
<stop stop-color="#4779C4"/>
<stop offset="1" stop-color="#4C8CEC"/>
</linearGradient>
<linearGradient id="paint17_linear_8_689" x1="487.799" y1="658.202" x2="487.799" y2="688.137" gradientUnits="userSpaceOnUse">
<stop stop-color="#4779C4"/>
<stop offset="1" stop-color="#4C8CEC"/>
</linearGradient>
<linearGradient id="paint18_linear_8_689" x1="487.799" y1="721.814" x2="487.799" y2="751.749" gradientUnits="userSpaceOnUse">
<stop stop-color="#4779C4"/>
<stop offset="1" stop-color="#4C8CEC"/>
</linearGradient>
<linearGradient id="paint19_linear_8_689" x1="487.799" y1="785.426" x2="487.799" y2="815.361" gradientUnits="userSpaceOnUse">
<stop stop-color="#4779C4"/>
<stop offset="1" stop-color="#4C8CEC"/>
</linearGradient>
<linearGradient id="paint20_linear_8_689" x1="547.118" y1="521.248" x2="547.118" y2="867" gradientUnits="userSpaceOnUse">
<stop stop-color="#4779C4"/>
<stop offset="1" stop-color="#4C8CEC"/>
</linearGradient>
<linearGradient id="paint21_linear_8_689" x1="528.896" y1="521.248" x2="528.896" y2="602.822" gradientUnits="userSpaceOnUse">
<stop stop-color="#4779C4"/>
<stop offset="1" stop-color="#4C8CEC"/>
</linearGradient>
<linearGradient id="paint22_linear_8_689" x1="509.51" y1="602.822" x2="509.51" y2="867" gradientUnits="userSpaceOnUse">
<stop stop-color="#4779C4"/>
<stop offset="1" stop-color="#4C8CEC"/>
</linearGradient>
<linearGradient id="paint23_linear_8_689" x1="570.381" y1="735.285" x2="570.381" y2="761.478" gradientUnits="userSpaceOnUse">
<stop stop-color="#4779C4"/>
<stop offset="1" stop-color="#4C8CEC"/>
</linearGradient>
<clipPath id="clip0_8_689">
<rect width="605" height="867" fill="white"/>
</clipPath>
</defs>
</svg>
